<svg version="1.1" id="Layer_1" xmlns="http://www.w3.org/2000/svg" xmlns:xlink="http://www.w3.org/1999/xlink" x="0px" y="0px"
	 width="100%" viewBox="0 0 501 472" enable-background="new 0 0 501 472" xml:space="preserve">
<path fill="#FFCB06" opacity="1.000000" stroke="none" 
	d="
M502.000000,288.000000 
	C502.000000,293.354919 502.000000,298.709869 501.720154,304.802429 
	C501.626862,308.026703 501.813416,310.513367 502.000000,313.000000 
	C502.000000,318.022095 502.000000,323.044189 501.646362,328.667725 
	C500.587616,331.798981 499.700562,334.293640 499.204376,336.863770 
	C490.859039,380.088989 468.377563,414.044006 431.631683,438.125397 
	C398.981995,459.522339 363.006836,466.943359 324.372192,461.127686 
	C297.297241,457.052155 273.039948,446.528229 251.951874,428.839478 
	C272.214722,411.703735 287.698212,391.429382 297.504730,367.038483 
	C306.287170,345.194580 310.303497,322.526031 308.621460,298.685913 
	C309.678406,297.939240 310.490051,297.368652 311.378754,296.969757 
	C355.579529,277.130371 385.282135,244.356171 399.023438,197.750961 
	C402.002563,187.647079 403.151154,177.003479 405.520874,166.673523 
	C426.371796,174.729538 443.989532,187.013199 459.088898,202.837112 
	C480.662018,225.445450 494.138947,252.234116 499.604340,283.047302 
	C499.912598,284.785187 501.179352,286.353027 502.000000,288.000000 
z"/>
<path fill="#C73693" opacity="1.000000" stroke="none" 
	d="
M0.999999,320.000000 
	C1.000000,312.979034 1.000000,305.958099 1.348935,298.255798 
	C5.302668,258.996277 20.488079,225.853378 48.220867,198.629852 
	C62.648544,184.467087 79.552376,174.054291 98.179489,166.119278 
	C98.344727,166.200378 98.700874,166.293564 98.731689,166.726166 
	C99.161621,171.120270 99.372147,175.111404 99.989075,179.038681 
	C106.061066,217.692093 124.588623,249.272064 154.477509,274.284424 
	C166.425583,284.283081 179.899185,291.838348 194.130615,298.557312 
	C194.714828,309.781738 194.674927,320.619476 195.987625,331.290771 
	C199.795486,362.246216 212.813599,389.124176 233.681137,412.175964 
	C239.117844,418.181732 245.196442,423.606476 250.840942,429.589478 
	C213.231750,458.786194 171.117935,468.864166 124.773659,459.913605 
	C64.963715,448.362366 17.063988,400.655121 4.884853,341.287354 
	C3.435663,334.223206 2.287627,327.097290 0.999999,320.000000 
z"/>
<path fill="#62A3E0" opacity="1.000000" stroke="none" 
	d="
M98.700874,166.293564 
	C98.700874,166.293564 98.344727,166.200378 98.169708,165.647247 
	C97.362297,149.749619 97.844971,134.436508 101.976631,119.578468 
	C119.668701,55.955242 160.738297,17.131958 225.601501,3.816432 
	C230.711700,2.767379 235.866135,1.933748 241.000000,1.000001 
	C247.021149,1.000000 253.042297,1.000000 259.780640,1.328704 
	C265.449463,2.201260 270.439728,2.512031 275.346527,3.325860 
	C314.397491,9.802722 346.706512,28.205414 371.475525,59.087456 
	C396.447906,90.223030 407.797058,125.867989 404.439331,165.850800 
	C355.829376,148.252960 309.648590,152.427444 265.388184,178.820007 
	C261.725372,173.296707 258.285217,168.009094 254.845047,162.721466 
	C254.114258,162.933670 253.383484,163.145874 252.652695,163.358078 
	C252.652695,171.347900 252.652695,179.337723 252.652695,187.327560 
	C251.870621,187.326096 251.088531,187.324631 250.306458,187.323181 
	C250.306458,179.315643 250.306458,171.308090 250.306458,163.300552 
	C249.635071,163.124176 248.963669,162.947800 248.292282,162.771408 
	C244.727051,168.215759 241.161819,173.660095 237.268585,178.920227 
	C207.088089,160.124664 174.521545,152.937256 139.663010,156.151764 
	C125.561211,157.452164 111.768425,160.546280 98.700874,166.293564 
M209.262314,126.764168 
	C209.105530,130.729599 210.757629,133.727127 214.600098,134.783310 
	C218.339142,135.811050 221.422226,134.500824 223.450195,130.928192 
	C223.925583,130.090759 225.115936,129.194977 226.021103,129.146729 
	C229.762756,128.947342 233.521194,129.063141 237.273483,129.063141 
	C231.593826,133.856766 227.422440,139.167145 225.050751,145.972458 
	C224.497452,147.560089 222.640778,149.261002 221.016144,149.798401 
	C216.629013,151.249573 214.046509,155.194168 215.454239,159.279877 
	C216.847549,163.323700 221.769806,165.432419 225.743393,163.687805 
	C229.327484,162.114212 230.472641,157.455765 229.008270,153.398972 
	C228.141068,150.996536 227.719482,147.939194 228.415848,145.562607 
	C230.223984,139.391663 234.620865,135.078003 240.175140,131.915161 
	C242.445663,130.622238 244.257477,130.376709 246.281342,132.661041 
	C249.134247,135.881073 253.103882,136.377686 255.994690,133.347977 
	C259.171722,130.018280 262.083862,130.583267 264.557404,133.018906 
	C268.267365,136.672012 271.831390,140.684662 274.454132,145.135620 
	C275.650909,147.166595 275.068085,150.818329 274.203674,153.365494 
	C272.684479,157.841980 273.902374,162.248184 277.934357,163.782745 
	C282.094299,165.366028 286.284912,163.480194 287.652161,159.409714 
	C289.138550,154.984421 286.607452,151.134567 281.771698,149.761398 
	C280.362335,149.361206 278.559113,147.936096 278.207001,146.636536 
	C276.562347,140.566254 273.071564,135.896851 268.349335,131.971420 
	C267.428009,131.205582 266.577026,130.355103 265.071686,128.972412 
	C271.806122,129.510635 278.031189,127.127716 282.533600,133.659210 
	C284.505127,136.519196 290.026123,135.338257 292.330017,132.556534 
	C294.782501,129.595474 294.339874,124.703819 291.389374,122.161018 
	C288.354492,119.545502 283.516632,119.556602 281.174225,122.936806 
	C279.103271,125.925247 276.694916,126.401268 273.542816,126.248436 
	C270.386017,126.095367 267.214233,126.178581 264.051086,126.249550 
	C261.324158,126.310730 259.149811,126.109497 257.279266,123.322639 
	C254.699295,119.478836 249.004959,119.049049 246.526733,122.637337 
	C244.055405,126.215637 241.091385,126.345268 237.546265,126.231606 
	C234.218414,126.124924 230.860825,126.439659 227.563629,126.104095 
	C225.997009,125.944664 224.175964,125.045280 223.096390,123.893929 
	C218.086349,118.550842 212.676208,119.307732 209.262314,126.764168 
z"/>
<path fill="#FFFFFF" opacity="1.000000" stroke="none" 
	d="
M240.531342,1.000001 
	C235.866135,1.933748 230.711700,2.767379 225.601501,3.816432 
	C160.738297,17.131958 119.668701,55.955242 101.976631,119.578468 
	C97.844971,134.436508 97.362297,149.749619 98.004471,165.566132 
	C79.552376,174.054291 62.648544,184.467087 48.220867,198.629852 
	C20.488079,225.853378 5.302668,258.996277 1.348935,297.787231 
	C1.000000,199.080719 1.000000,100.161423 1.000000,1.000000 
	C80.687401,1.000000 160.375046,1.000000 240.531342,1.000001 
z"/>
<path fill="#FFFFFF" opacity="1.000000" stroke="none" 
	d="
M404.791626,165.862411 
	C407.797058,125.867989 396.447906,90.223030 371.475525,59.087456 
	C346.706512,28.205414 314.397491,9.802722 275.346527,3.325860 
	C270.439728,2.512031 265.449463,2.201260 260.248932,1.328704 
	C340.599915,1.000000 421.199799,1.000000 502.000000,1.000000 
	C502.000000,96.354134 502.000000,191.708405 502.000000,287.531342 
	C501.179352,286.353027 499.912598,284.785187 499.604340,283.047302 
	C494.138947,252.234116 480.662018,225.445450 459.088898,202.837112 
	C443.989532,187.013199 426.371796,174.729538 405.455872,166.476532 
	C405.012817,166.214462 404.791626,165.862411 404.791626,165.862411 
z"/>
<path fill="#FFFEFE" opacity="1.000000" stroke="none" 
	d="
M0.999999,320.468658 
	C2.287627,327.097290 3.435663,334.223206 4.884853,341.287354 
	C17.063988,400.655121 64.963715,448.362366 124.773659,459.913605 
	C171.117935,468.864166 213.231750,458.786194 251.049667,429.564789 
	C251.397659,429.248749 251.807938,429.162628 251.807938,429.162628 
	C273.039948,446.528229 297.297241,457.052155 324.372192,461.127686 
	C363.006836,466.943359 398.981995,459.522339 431.631683,438.125397 
	C468.377563,414.044006 490.859039,380.088989 499.204376,336.863770 
	C499.700562,334.293640 500.587616,331.798981 501.646362,329.134583 
	C502.000000,376.973663 502.000000,424.947327 502.000000,472.960510 
	C335.117950,472.960510 168.235901,472.960510 1.000000,472.960510 
	C1.000000,422.312988 1.000000,371.625153 0.999999,320.468658 
z"/>
<path fill="#FFD342" opacity="1.000000" stroke="none" 
	d="
M502.000000,312.555847 
	C501.813416,310.513367 501.626862,308.026703 501.720154,305.270020 
	C502.000000,307.370575 502.000000,309.741119 502.000000,312.555847 
z"/>
<path fill="#61A830" opacity="1.000000" stroke="none" 
	d="
M404.439331,165.850800 
	C404.791626,165.862411 405.012817,166.214462 405.077850,166.411469 
	C403.151154,177.003479 402.002563,187.647079 399.023438,197.750961 
	C385.282135,244.356171 355.579529,277.130371 311.378754,296.969757 
	C310.490051,297.368652 309.678406,297.939240 308.480042,298.498962 
	C308.129303,298.568207 307.865692,298.179321 307.950012,297.800690 
	C306.979797,274.421570 299.897705,253.208313 288.703400,233.292206 
	C285.060272,226.810623 280.803314,220.674057 276.616882,214.053436 
	C279.867523,206.978790 280.092682,200.751602 274.973572,194.347305 
	C271.270935,189.715103 268.691284,184.185226 265.610840,179.055695 
	C309.648590,152.427444 355.829376,148.252960 404.439331,165.850800 
z"/>
<path fill="#C42C08" opacity="1.000000" stroke="none" 
	d="
M251.951874,428.839478 
	C251.807938,429.162628 251.397659,429.248749 251.188934,429.273438 
	C245.196442,423.606476 239.117844,418.181732 233.681137,412.175964 
	C212.813599,389.124176 199.795486,362.246216 195.987625,331.290771 
	C194.674927,320.619476 194.714828,309.781738 194.254181,298.456177 
	C194.371521,297.892334 194.612534,297.681976 194.880356,297.878357 
	C232.707138,312.705627 270.279633,312.741058 307.865692,298.179321 
	C307.865692,298.179321 308.129303,298.568207 308.270721,298.755157 
	C310.303497,322.526031 306.287170,345.194580 297.504730,367.038483 
	C287.698212,391.429382 272.214722,411.703735 251.951874,428.839478 
z"/>
<path fill="#141F85" opacity="1.000000" stroke="none" 
	d="
M98.731689,166.726166 
	C111.768425,160.546280 125.561211,157.452164 139.663010,156.151764 
	C174.521545,152.937256 207.088089,160.124664 237.149780,179.269745 
	C235.119476,183.476669 233.197678,187.396652 230.575455,190.772568 
	C224.820236,198.182022 221.720245,205.761688 226.800201,214.868622 
	C224.933655,216.976654 223.248016,218.816895 221.834305,220.846527 
	C205.733078,243.962662 196.771622,269.620300 194.612534,297.681976 
	C194.612534,297.681976 194.371521,297.892334 194.247955,297.993439 
	C179.899185,291.838348 166.425583,284.283081 154.477509,274.284424 
	C124.588623,249.272064 106.061066,217.692093 99.989075,179.038681 
	C99.372147,175.111404 99.161621,171.120270 98.731689,166.726166 
z"/>
<path fill="#E9EDE6" opacity="1.000000" stroke="none" 
	d="
M227.107391,214.688782 
	C221.720245,205.761688 224.820236,198.182022 230.575455,190.772568 
	C233.197678,187.396652 235.119476,183.476669 237.477783,179.453949 
	C241.161819,173.660095 244.727051,168.215759 248.292282,162.771408 
	C248.963669,162.947800 249.635071,163.124176 250.306458,163.300552 
	C250.306458,171.308090 250.306458,179.315643 250.306458,187.323181 
	C251.088531,187.324631 251.870621,187.326096 252.652695,187.327560 
	C252.652695,179.337723 252.652695,171.347900 252.652695,163.358078 
	C253.383484,163.145874 254.114258,162.933670 254.845047,162.721466 
	C258.285217,168.009094 261.725372,173.296707 265.388184,178.820007 
	C268.691284,184.185226 271.270935,189.715103 274.973572,194.347305 
	C280.092682,200.751602 279.867523,206.978790 276.278320,214.231628 
	C273.355377,221.625854 270.403687,228.457886 267.839874,235.432526 
	C266.741882,238.419556 265.224426,239.400421 262.043182,239.278305 
	C254.905838,239.004364 247.746536,239.056992 240.604721,239.267319 
	C237.815796,239.349442 236.546646,238.486954 235.571701,235.828125 
	C232.959732,228.704880 229.955688,221.725372 227.107391,214.688782 
M262.856995,180.666931 
	C260.744019,177.311493 258.631042,173.956055 256.518066,170.600616 
	C256.012787,170.769043 255.507538,170.937454 255.002274,171.105881 
	C255.322296,175.812256 255.642334,180.518646 255.833603,186.095963 
	C255.920624,188.454819 256.007660,190.813660 255.717819,193.847229 
	C256.317535,194.948364 256.889862,196.065491 257.522034,197.147675 
	C259.548950,200.617371 259.200714,203.915955 256.216125,206.498062 
	C253.425278,208.912552 250.071136,209.064316 247.157776,206.684174 
	C244.058914,204.152496 243.781967,200.856476 245.622040,197.349930 
	C246.178986,196.288605 246.682022,195.199005 247.105881,194.057526 
	C247.105881,194.057526 247.040817,194.161224 247.654465,194.235199 
	C247.650650,193.835342 247.646835,193.435471 247.795029,192.187180 
	C247.653503,189.936386 247.511978,187.685593 247.672195,184.485657 
	C247.672195,179.954010 247.672195,175.422363 247.672195,170.890717 
	C247.285568,170.779648 246.898941,170.668564 246.512314,170.557495 
	C244.655457,173.981537 242.798599,177.405594 240.301407,181.100098 
	C237.070496,186.240524 234.132278,191.598007 230.526474,196.460403 
	C226.907410,201.340637 225.856140,206.017838 229.504395,212.020935 
	C232.223877,218.963577 235.057800,225.864639 237.602234,232.870865 
	C238.521317,235.401520 239.639343,236.650925 242.544052,236.544296 
	C248.693771,236.318542 254.863678,236.608871 261.009399,236.333023 
	C262.399536,236.270599 264.456512,235.067734 264.960358,233.866943 
	C268.098236,226.388184 270.881714,218.760712 274.107178,210.578964 
	C275.409119,207.296799 277.586182,204.250229 275.048859,200.434616 
	C270.865692,194.144028 266.984711,187.652512 262.856995,180.666931 
M251.720688,189.446198 
	C250.220825,193.332993 248.437515,197.147675 247.417877,201.156601 
	C247.158951,202.174683 249.082245,204.392761 250.461426,204.977142 
	C251.552475,205.439453 254.015762,204.674057 254.655960,203.675613 
	C255.439087,202.454239 255.568970,199.273941 254.919067,198.926254 
	C250.993835,196.826340 252.243073,193.322418 251.720688,189.446198 
z"/>
<path fill="#E7F0F0" opacity="1.000000" stroke="none" 
	d="
M209.330688,126.389877 
	C212.676208,119.307732 218.086349,118.550842 223.096390,123.893929 
	C224.175964,125.045280 225.997009,125.944664 227.563629,126.104095 
	C230.860825,126.439659 234.218414,126.124924 237.546265,126.231606 
	C241.091385,126.345268 244.055405,126.215637 246.526733,122.637337 
	C249.004959,119.049049 254.699295,119.478836 257.279266,123.322639 
	C259.149811,126.109497 261.324158,126.310730 264.051086,126.249550 
	C267.214233,126.178581 270.386017,126.095367 273.542816,126.248436 
	C276.694916,126.401268 279.103271,125.925247 281.174225,122.936806 
	C283.516632,119.556602 288.354492,119.545502 291.389374,122.161018 
	C294.339874,124.703819 294.782501,129.595474 292.330017,132.556534 
	C290.026123,135.338257 284.505127,136.519196 282.533600,133.659210 
	C278.031189,127.127716 271.806122,129.510635 265.071686,128.972412 
	C266.577026,130.355103 267.428009,131.205582 268.349335,131.971420 
	C273.071564,135.896851 276.562347,140.566254 278.207001,146.636536 
	C278.559113,147.936096 280.362335,149.361206 281.771698,149.761398 
	C286.607452,151.134567 289.138550,154.984421 287.652161,159.409714 
	C286.284912,163.480194 282.094299,165.366028 277.934357,163.782745 
	C273.902374,162.248184 272.684479,157.841980 274.203674,153.365494 
	C275.068085,150.818329 275.650909,147.166595 274.454132,145.135620 
	C271.831390,140.684662 268.267365,136.672012 264.557404,133.018906 
	C262.083862,130.583267 259.171722,130.018280 255.994690,133.347977 
	C253.103882,136.377686 249.134247,135.881073 246.281342,132.661041 
	C244.257477,130.376709 242.445663,130.622238 240.175140,131.915161 
	C234.620865,135.078003 230.223984,139.391663 228.415848,145.562607 
	C227.719482,147.939194 228.141068,150.996536 229.008270,153.398972 
	C230.472641,157.455765 229.327484,162.114212 225.743393,163.687805 
	C221.769806,165.432419 216.847549,163.323700 215.454239,159.279877 
	C214.046509,155.194168 216.629013,151.249573 221.016144,149.798401 
	C222.640778,149.261002 224.497452,147.560089 225.050751,145.972458 
	C227.422440,139.167145 231.593826,133.856766 237.273483,129.063141 
	C233.521194,129.063141 229.762756,128.947342 226.021103,129.146729 
	C225.115936,129.194977 223.925583,130.090759 223.450195,130.928192 
	C221.422226,134.500824 218.339142,135.811050 214.600098,134.783310 
	C210.757629,133.727127 209.105530,130.729599 209.330688,126.389877 
M282.057892,161.405884 
	C283.036072,159.423553 284.541718,157.494659 284.750427,155.434372 
	C284.842682,154.523804 282.242188,152.433319 280.979034,152.521622 
	C279.392578,152.632553 277.045471,154.136749 276.573822,155.554428 
	C275.300507,159.381729 277.486755,161.366119 282.057892,161.405884 
M219.162064,153.820938 
	C217.305496,156.361481 217.277893,159.031464 219.972763,160.643250 
	C221.285233,161.428238 224.510864,161.347641 225.120132,160.458923 
	C226.183060,158.908447 226.701462,156.079971 225.983521,154.420929 
	C224.847717,151.796295 222.191544,151.605255 219.162064,153.820938 
M212.225677,129.160309 
	C213.940247,130.145584 215.583664,131.666107 217.397171,131.907242 
	C218.418900,132.043091 220.842667,129.826447 220.683472,129.093124 
	C220.232437,127.015205 219.152740,123.919899 217.640137,123.459091 
	C214.161697,122.399406 212.172607,124.728790 212.225677,129.160309 
M255.867340,129.144516 
	C256.596466,125.965126 255.207947,123.600250 252.200241,123.395088 
	C250.626297,123.287727 248.166641,124.984612 247.487045,126.489761 
	C246.945068,127.690125 248.322479,131.188370 249.146912,131.292206 
	C251.197098,131.550430 253.418106,130.452454 255.867340,129.144516 
M282.226562,129.166992 
	C284.089264,130.127808 285.885437,131.555557 287.845245,131.834747 
	C288.708893,131.957779 290.984436,129.387421 290.743652,128.664337 
	C290.075165,126.656754 288.715698,123.819244 287.097565,123.409531 
	C283.775726,122.568436 282.154541,125.091881 282.226562,129.166992 
z"/>
<path fill="#010101" opacity="1.000000" stroke="none" 
	d="
M226.800201,214.868622 
	C229.955688,221.725372 232.959732,228.704880 235.571701,235.828125 
	C236.546646,238.486954 237.815796,239.349442 240.604721,239.267319 
	C247.746536,239.056992 254.905838,239.004364 262.043182,239.278305 
	C265.224426,239.400421 266.741882,238.419556 267.839874,235.432526 
	C270.403687,228.457886 273.355377,221.625854 276.488525,214.557861 
	C280.803314,220.674057 285.060272,226.810623 288.703400,233.292206 
	C299.897705,253.208313 306.979797,274.421570 307.950012,297.800690 
	C270.279633,312.741058 232.707138,312.705627 194.880356,297.878357 
	C196.771622,269.620300 205.733078,243.962662 221.834305,220.846527 
	C223.248016,218.816895 224.933655,216.976654 226.800201,214.868622 
M259.472961,251.064026 
	C262.887054,251.064026 266.301147,251.064026 269.546509,251.064026 
	C269.546509,247.473480 269.546509,244.590942 269.546509,241.788422 
	C257.313629,241.788422 245.475021,241.788422 233.731293,241.788422 
	C233.731293,245.100220 233.731293,247.987640 233.731293,251.064026 
	C242.228363,251.064026 250.353729,251.064026 259.472961,251.064026 
z"/>
<path fill="#050605" opacity="1.000000" stroke="none" 
	d="
M273.782654,211.182526 
	C270.881714,218.760712 268.098236,226.388184 264.960358,233.866943 
	C264.456512,235.067734 262.399536,236.270599 261.009399,236.333023 
	C254.863678,236.608871 248.693771,236.318542 242.544052,236.544296 
	C239.639343,236.650925 238.521317,235.401520 237.602234,232.870865 
	C235.057800,225.864639 232.223877,218.963577 229.645447,211.377335 
	C230.933334,209.317673 231.925827,207.733017 233.255020,206.516144 
	C237.843201,202.315643 242.548828,198.243423 247.209732,194.122345 
	C246.682022,195.199005 246.178986,196.288605 245.622040,197.349930 
	C243.781967,200.856476 244.058914,204.152496 247.157776,206.684174 
	C250.071136,209.064316 253.425278,208.912552 256.216125,206.498062 
	C259.200714,203.915955 259.548950,200.617371 257.522034,197.147675 
	C256.889862,196.065491 256.317535,194.948364 256.087189,193.773468 
	C262.231903,199.527328 268.007263,205.354935 273.782654,211.182526 
z"/>
<path fill="#182383" opacity="1.000000" stroke="none" 
	d="
M247.157806,194.089935 
	C242.548828,198.243423 237.843201,202.315643 233.255020,206.516144 
	C231.925827,207.733017 230.933334,209.317673 229.534286,211.010529 
	C225.856140,206.017838 226.907410,201.340637 230.526474,196.460403 
	C234.132278,191.598007 237.070496,186.240524 240.793030,181.258881 
	C243.313248,182.756699 245.341843,184.095749 247.370438,185.434799 
	C247.511978,187.685593 247.653503,189.936386 247.612610,192.797150 
	C247.255707,193.635406 247.125916,193.886780 247.040817,194.161224 
	C247.040817,194.161224 247.105881,194.057526 247.157806,194.089935 
z"/>
<path fill="#64A735" opacity="1.000000" stroke="none" 
	d="
M273.944916,210.880737 
	C268.007263,205.354935 262.231903,199.527328 256.275604,193.436127 
	C256.007660,190.813660 255.920624,188.454819 256.245819,185.542694 
	C258.764130,183.741516 260.870239,182.493607 262.976349,181.245697 
	C266.984711,187.652512 270.865692,194.144028 275.048859,200.434616 
	C277.586182,204.250229 275.409119,207.296799 273.944916,210.880737 
z"/>
<path fill="#131413" opacity="1.000000" stroke="none" 
	d="
M251.837036,189.832642 
	C252.243073,193.322418 250.993835,196.826340 254.919067,198.926254 
	C255.568970,199.273941 255.439087,202.454239 254.655960,203.675613 
	C254.015762,204.674057 251.552475,205.439453 250.461426,204.977142 
	C249.082245,204.392761 247.158951,202.174683 247.417877,201.156601 
	C248.437515,197.147675 250.220825,193.332993 251.837036,189.832642 
z"/>
<path fill="#7CB2D7" opacity="1.000000" stroke="none" 
	d="
M262.916687,180.956314 
	C260.870239,182.493607 258.764130,183.741516 256.310181,185.107224 
	C255.642334,180.518646 255.322296,175.812256 255.002274,171.105881 
	C255.507538,170.937454 256.012787,170.769043 256.518066,170.600616 
	C258.631042,173.956055 260.744019,177.311493 262.916687,180.956314 
z"/>
<path fill="#6EA6DD" opacity="1.000000" stroke="none" 
	d="
M247.521317,184.960236 
	C245.341843,184.095749 243.313248,182.756699 241.113190,181.123657 
	C242.798599,177.405594 244.655457,173.981537 246.512314,170.557495 
	C246.898941,170.668564 247.285568,170.779648 247.672195,170.890717 
	C247.672195,175.422363 247.672195,179.954010 247.521317,184.960236 
z"/>
<path fill="#050605" opacity="1.000000" stroke="none" 
	d="
M247.347641,194.198212 
	C247.125916,193.886780 247.255707,193.635406 247.536591,193.221375 
	C247.646835,193.435471 247.650650,193.835342 247.347641,194.198212 
z"/>
<path fill="#6CA8DE" opacity="1.000000" stroke="none" 
	d="
M281.696503,161.527466 
	C277.486755,161.366119 275.300507,159.381729 276.573822,155.554428 
	C277.045471,154.136749 279.392578,152.632553 280.979034,152.521622 
	C282.242188,152.433319 284.842682,154.523804 284.750427,155.434372 
	C284.541718,157.494659 283.036072,159.423553 281.696503,161.527466 
z"/>
<path fill="#6CA8E0" opacity="1.000000" stroke="none" 
	d="
M219.433578,153.552994 
	C222.191544,151.605255 224.847717,151.796295 225.983521,154.420929 
	C226.701462,156.079971 226.183060,158.908447 225.120132,160.458923 
	C224.510864,161.347641 221.285233,161.428238 219.972763,160.643250 
	C217.277893,159.031464 217.305496,156.361481 219.433578,153.552994 
z"/>
<path fill="#68A7DD" opacity="1.000000" stroke="none" 
	d="
M212.143707,128.776031 
	C212.172607,124.728790 214.161697,122.399406 217.640137,123.459091 
	C219.152740,123.919899 220.232437,127.015205 220.683472,129.093124 
	C220.842667,129.826447 218.418900,132.043091 217.397171,131.907242 
	C215.583664,131.666107 213.940247,130.145584 212.143707,128.776031 
z"/>
<path fill="#6BA7DF" opacity="1.000000" stroke="none" 
	d="
M255.718933,129.521790 
	C253.418106,130.452454 251.197098,131.550430 249.146912,131.292206 
	C248.322479,131.188370 246.945068,127.690125 247.487045,126.489761 
	C248.166641,124.984612 250.626297,123.287727 252.200241,123.395088 
	C255.207947,123.600250 256.596466,125.965126 255.718933,129.521790 
z"/>
<path fill="#69A7DF" opacity="1.000000" stroke="none" 
	d="
M282.143738,128.783722 
	C282.154541,125.091881 283.775726,122.568436 287.097565,123.409531 
	C288.715698,123.819244 290.075165,126.656754 290.743652,128.664337 
	C290.984436,129.387421 288.708893,131.957779 287.845245,131.834747 
	C285.885437,131.555557 284.089264,130.127808 282.143738,128.783722 
z"/>
<path fill="#D9D9D1" opacity="1.000000" stroke="none" 
	d="
M258.976013,251.064026 
	C250.353729,251.064026 242.228363,251.064026 233.731293,251.064026 
	C233.731293,247.987640 233.731293,245.100220 233.731293,241.788422 
	C245.475021,241.788422 257.313629,241.788422 269.546509,241.788422 
	C269.546509,244.590942 269.546509,247.473480 269.546509,251.064026 
	C266.301147,251.064026 262.887054,251.064026 258.976013,251.064026 
M243.657318,244.201523 
	C236.591614,244.191742 236.591614,244.191742 236.716400,247.931274 
	C246.641449,247.931274 256.573578,247.931274 266.558563,247.931274 
	C267.656677,244.853851 266.413300,244.101089 263.597504,244.161224 
	C257.274963,244.296219 250.947525,244.202362 243.657318,244.201523 
z"/>
<path fill="#131211" opacity="1.000000" stroke="none" 
	d="
M244.139694,244.201599 
	C250.947525,244.202362 257.274963,244.296219 263.597504,244.161224 
	C266.413300,244.101089 267.656677,244.853851 266.558563,247.931274 
	C256.573578,247.931274 246.641449,247.931274 236.716400,247.931274 
	C236.591614,244.191742 236.591614,244.191742 244.139694,244.201599 
z"/>
</svg>