<?xml version="1.0" encoding="utf-8"?>
<!-- Generator: Adobe Illustrator 16.0.0, SVG Export Plug-In . SVG Version: 6.00 Build 0)  -->
<!DOCTYPE svg PUBLIC "-//W3C//DTD SVG 1.1//EN" "http://www.w3.org/Graphics/SVG/1.1/DTD/svg11.dtd">
<svg version="1.1" id="Capa_1" xmlns="http://www.w3.org/2000/svg" xmlns:xlink="http://www.w3.org/1999/xlink" x="0px" y="0px"
	 width="80px" height="80px" viewBox="0 0 80 80" enable-background="new 0 0 80 80" xml:space="preserve">
<g>
	<g>
		<path fill-rule="evenodd" clip-rule="evenodd" fill="#FEFEFE" d="M1,56C1,38.76,1.07,21.519,0.926,4.278
			c-0.022-2.666,0.398-3.42,3.263-3.367C15.789,1.125,27.396,1,39,1c0.022,9.029-2.003,11.395-10.677,12.487
			c-1.473,0.185-3.228,0.128-3.757,1.862c-0.552,1.813,1.1,2.546,2.239,3.478c5.91,4.836,6.526,10.234,1.182,15.438
			c-2.079,2.023-2.608,3.979-2.585,6.548c0.031,3.494,0.091,6.991-0.08,10.485c-0.14,2.866-1.326,4.908-4.439,4.943
			C14.255,56.317,7.616,56.965,1,56z"/>
		<path fill-rule="evenodd" clip-rule="evenodd" fill="#FEFEFE" d="M72,1c3,0,7.171-1.171,8.671,0.329S81,7,81,10
			c0,15.333,0,30.667,0,46c-6.615,0.949-13.255,0.315-19.883,0.243c-2.784-0.03-4.17-1.711-4.393-4.446
			c-0.162-1.996-0.102-3.993-0.143-5.989c-0.096-4.693,0.287-8.999-3.691-13.204c-4.693-4.963-3.432-9.207,1.896-13.489
			c1.248-1.003,3.255-1.714,2.632-3.76c-0.594-1.946-2.616-1.735-4.239-1.897C45.17,12.661,42.979,9.989,43,1c9,0,18,0,27,0
			c0.719,0.56-0.025,2.114,1.219,2.092C71.609,3.084,71.521,1.655,72,1z"/>
		<path fill-rule="evenodd" clip-rule="evenodd" fill="#1C2C38" d="M43,1c0.278,0.574,0.709,1.123,0.812,1.728
			c1.195,7.06,4.337,11.453,12.47,9.659c1.537-0.339,2.914,0.737,3.467,2.305c0.592,1.678-0.375,2.856-1.603,3.849
			c-0.517,0.418-1.06,0.804-1.593,1.201c-6.246,4.668-6.406,5.312-3.072,12.378c0.141,0.3,0.183,0.803,0.4,0.891
			c7.939,3.191,3.572,10.003,4.102,15.107c0.738,7.118,0.189,7.037,7.186,7.221C70.445,55.477,75.779,54.49,81,56
			c0,2.333,0,4.667,0,7c-0.418,0.361-0.901,0.573-1.447,0.639c-4.332-5.002-10.148-4.342-15.855-4.183
			c-2.832,0.079-4.264,1.364-4.258,4.271c0.033,15.081-1.551,12.448,11.92,12.951c3.678,0.137,5.167-2.32,7.317-4.207
			C79.54,72.266,80.314,72.437,81,73c0,8,0,8-8,8c-23,0-46-0.046-69,0.065c-2.501,0.013-3.135-0.557-3.069-3.067
			C1.125,70.67,1,63.333,1,56c6.231-1.514,12.563-0.587,18.837-0.603c3.359-0.008,4.34-1.035,4.104-4.251
			c-0.256-3.475-0.21-6.991-0.01-10.474c0.158-2.739-1.522-5.917,3.55-7.146c3.585-0.869,3.165-9.868,0.059-12.385
			c-2.168-1.758-6.318-2.609-5.172-6.398c1.154-3.813,5.067-2.493,7.835-2.351c3.552,0.184,5.539-0.75,6.228-4.491
			C36.869,5.524,38.116,3.296,39,1C40.334,1,41.666,1,43,1z"/>
		<path fill-rule="evenodd" clip-rule="evenodd" fill="#48565F" d="M72,1c0.238,0.606,0.627,1.198,0.683,1.82
			c0.13,1.446,0.391,3.36-1.708,3.341c-2.035-0.019-1.895-1.878-1.702-3.357C69.354,2.182,69.748,1.601,70,1C70.666,1,71.334,1,72,1
			z"/>
		<path fill-rule="evenodd" clip-rule="evenodd" fill="#283846" d="M81,67c0,0.667,0,1.333,0,2c-0.6,0.846-1.197,1.694-2.438,1.039
			c-1.557-1.8-1.605-3.158,1.09-3.709C80.169,66.417,80.618,66.641,81,67z"/>
		<path fill-rule="evenodd" clip-rule="evenodd" fill="#EBEDEE" d="M79.213,70.059C79.809,69.705,80.404,69.353,81,69
			c0,1.333,0,2.667,0,4c-0.574-0.068-1.15-0.137-1.725-0.205C78.078,71.91,78.25,70.993,79.213,70.059z"/>
		<path fill-rule="evenodd" clip-rule="evenodd" fill="#F1F2F3" d="M81,67c-0.418-0.103-0.836-0.205-1.254-0.309
			c-1.641-1.104-1.832-2.199,0.021-3.282C80.178,63.273,80.589,63.137,81,63C81,64.333,81,65.667,81,67z"/>
		<path fill-rule="evenodd" clip-rule="evenodd" fill="#4A5861" d="M11.201,25.988c-1.527-0.057-1.844-1.146-1.957-2.345
			c-0.112-1.197-0.007-2.497,1.331-2.858c1.455-0.394,2.079,0.69,2.171,1.966C12.841,24.071,12.813,25.426,11.201,25.988z"/>
		<path fill-rule="evenodd" clip-rule="evenodd" fill="#55616A" d="M12.821,33.787c-0.171,1.098-0.314,2.394-1.894,2.318
			c-1.539-0.072-1.73-1.362-1.723-2.539c0.008-1.377,0.262-2.896,2.111-2.621C12.703,31.151,12.806,32.515,12.821,33.787z"/>
		<path fill-rule="evenodd" clip-rule="evenodd" fill="#2C3C47" d="M8.455,28.514c-0.367,1.514-1.524,1.527-2.723,1.524
			c-1.254-0.003-2.587-0.292-2.428-1.733c0.201-1.813,1.901-1.412,3.173-1.436C7.607,26.848,8.357,27.324,8.455,28.514z"/>
		<path fill-rule="evenodd" clip-rule="evenodd" fill="#2C3C47" d="M16.017,30.026c-1.267,0.063-2.505-0.236-2.417-1.716
			c0.092-1.54,1.504-1.475,2.672-1.459c1.19,0.016,2.574,0.106,2.437,1.679C18.583,29.979,17.23,30.078,16.017,30.026z"/>
		<path fill-rule="evenodd" clip-rule="evenodd" fill="#515E67" d="M72.828,13.607c-0.051,1.637-0.333,2.938-1.703,2.989
			c-1.714,0.063-1.98-1.396-1.986-2.775c-0.004-1.219,0.383-2.498,1.709-2.578C72.656,11.133,72.596,12.776,72.828,13.607z"/>
		<path fill-rule="evenodd" clip-rule="evenodd" fill="#394852" d="M68.502,8.583c-0.047,1.529-1.139,1.846-2.342,1.898
			c-1.151,0.05-2.536,0.016-2.882-1.284c-0.38-1.429,0.775-1.985,2.024-2.083C66.609,7.014,67.965,6.937,68.502,8.583z"/>
		<path fill-rule="evenodd" clip-rule="evenodd" fill="#394852" d="M78.87,8.579c-0.276,1.726-1.478,1.85-2.61,1.896
			c-1.146,0.047-2.545-0.021-2.675-1.479c-0.163-1.846,1.341-1.87,2.69-1.918C77.561,7.032,78.406,7.574,78.87,8.579z"/>
		<path fill-rule="evenodd" clip-rule="evenodd" fill="#FA3E58" d="M55.03,57.957c-0.001,5.497-0.095,10.995,0.042,16.488
			c0.063,2.512-0.637,3.563-3.348,3.504c-7.158-0.156-14.324-0.113-21.485-0.017c-2.253,0.03-3.299-0.54-3.278-3.043
			c0.097-11.492,0.119-22.985-0.013-34.477c-0.033-2.815,1.185-3.301,3.597-3.264c6.994,0.106,13.994,0.172,20.983-0.024
			c3.032-0.085,3.617,1.188,3.547,3.845C54.928,46.629,55.031,52.294,55.03,57.957z"/>
		<path fill-rule="evenodd" clip-rule="evenodd" fill="#6B6DEF" d="M79.767,63.409c-0.483,1.094-0.499,2.188-0.017,3.284
			c-2.623,0.731-1.81,2.013-0.539,3.365c0.021,0.912,0.042,1.824,0.063,2.736c-1.297,6.754-6.594,5.047-10.954,5.081
			C58.14,77.954,58.139,77.9,58.139,67.824c0-9.483,0.002-9.394,9.419-9.52C72.445,58.238,77.432,57.541,79.767,63.409z"/>
		<path fill-rule="evenodd" clip-rule="evenodd" fill="#93CF34" d="M13.788,77.904c-9.691,0-9.691,0-9.691-9.545
			c0-9.686,0-9.686,9.621-9.686c10.187,0,10.187,0,10.187,10.111C23.904,77.904,23.904,77.904,13.788,77.904z"/>
		<path fill-rule="evenodd" clip-rule="evenodd" fill="#FDC806" d="M31.61,33.282c3.875-9.285,3.875-9.285-5.713-17.812
			c8.849,1.75,14.188-0.694,14.85-10.283c1.806,8.332,5.633,12.9,15.002,10.517c-7.946,4.16-10.121,9.625-5.586,17.827
			C43.594,25.551,37.667,27.812,31.61,33.282z"/>
		<path fill-rule="evenodd" clip-rule="evenodd" fill="#E5E7E8" d="M38.095,33.873c2.849-2.936,2.849-2.936,5.946,0
			C41.938,33.873,40.1,33.873,38.095,33.873z"/>
	</g>
</g>
</svg>
